<svg xmlns="http://www.w3.org/2000/svg" width="512" height="512" viewBox="0 0 512 512" role="img" aria-label="Article card carousel icon">
  <defs>
    <linearGradient id="bg" x1="64" y1="48" x2="448" y2="464" gradientUnits="userSpaceOnUse">
      <stop offset="0" stop-color="#172554"/>
      <stop offset="0.55" stop-color="#2563eb"/>
      <stop offset="1" stop-color="#14b8a6"/>
    </linearGradient>
    <filter id="shadow" x="-20%" y="-20%" width="140%" height="140%">
      <feDropShadow dx="0" dy="16" stdDeviation="18" flood-color="#020617" flood-opacity="0.28"/>
    </filter>
  </defs>
  <rect width="512" height="512" rx="112" fill="url(#bg)"/>
  <g filter="url(#shadow)">
    <rect x="130" y="118" width="222" height="288" rx="22" fill="#dbeafe" opacity="0.72"/>
    <rect x="160" y="94" width="222" height="288" rx="22" fill="#f8fafc"/>
    <rect x="190" y="70" width="222" height="288" rx="22" fill="#ffffff"/>
  </g>
  <rect x="226" y="116" width="150" height="16" rx="8" fill="#2563eb"/>
  <rect x="226" y="158" width="114" height="12" rx="6" fill="#0f172a"/>
  <rect x="226" y="184" width="132" height="12" rx="6" fill="#64748b"/>
  <rect x="226" y="210" width="98" height="12" rx="6" fill="#64748b"/>
  <rect x="226" y="258" width="110" height="14" rx="7" fill="#14b8a6"/>
  <rect x="226" y="292" width="150" height="10" rx="5" fill="#94a3b8"/>
  <rect x="226" y="316" width="126" height="10" rx="5" fill="#94a3b8"/>
  <circle cx="162" cy="146" r="30" fill="#14b8a6"/>
  <path d="M153 146h18M162 137v18" stroke="#ffffff" stroke-width="9" stroke-linecap="round"/>
  <path d="M390 390l38 28-38 28" fill="none" stroke="#ffffff" stroke-width="22" stroke-linecap="round" stroke-linejoin="round"/>
  <path d="M84 390l-38 28 38 28" fill="none" stroke="#dbeafe" stroke-width="22" stroke-linecap="round" stroke-linejoin="round"/>
</svg>
