<svg xmlns="http://www.w3.org/2000/svg" width="1024" height="512" viewBox="0 0 1024 512" role="img" aria-label="文章轮播卡片 logo">
  <defs>
    <linearGradient id="markBg" x1="70" y1="80" x2="378" y2="420" gradientUnits="userSpaceOnUse">
      <stop offset="0" stop-color="#172554"/>
      <stop offset="0.58" stop-color="#2563eb"/>
      <stop offset="1" stop-color="#14b8a6"/>
    </linearGradient>
    <filter id="shadow" x="-20%" y="-20%" width="140%" height="140%">
      <feDropShadow dx="0" dy="16" stdDeviation="18" flood-color="#020617" flood-opacity="0.18"/>
    </filter>
  </defs>
  <rect width="1024" height="512" rx="64" fill="#f8fafc"/>
  <g filter="url(#shadow)">
    <rect x="76" y="82" width="352" height="352" rx="88" fill="url(#markBg)"/>
    <rect x="168" y="150" width="154" height="218" rx="18" fill="#dbeafe" opacity="0.72"/>
    <rect x="192" y="130" width="154" height="218" rx="18" fill="#ffffff"/>
    <rect x="216" y="110" width="154" height="218" rx="18" fill="#ffffff"/>
    <rect x="242" y="150" width="94" height="12" rx="6" fill="#2563eb"/>
    <rect x="242" y="184" width="76" height="9" rx="4.5" fill="#0f172a"/>
    <rect x="242" y="206" width="90" height="9" rx="4.5" fill="#64748b"/>
    <rect x="242" y="228" width="64" height="9" rx="4.5" fill="#64748b"/>
    <circle cx="188" cy="176" r="22" fill="#14b8a6"/>
  </g>
  <text x="486" y="220" font-family="Arial, 'PingFang SC', 'Microsoft YaHei', sans-serif" font-size="70" font-weight="800" fill="#0f172a">文章轮播卡片</text>
  <text x="490" y="286" font-family="Arial, 'PingFang SC', 'Microsoft YaHei', sans-serif" font-size="32" font-weight="500" fill="#475569">从文章到可发布图文卡片</text>
  <rect x="504" y="326" width="108" height="12" rx="6" fill="#2563eb"/>
  <rect x="626" y="326" width="72" height="12" rx="6" fill="#14b8a6"/>
</svg>
